<svg aria-hidden="true" style="position: absolute; width: 0; height: 0; overflow: hidden;" version="1.1" xmlns="http://www.w3.org/2000/svg" xmlns:xlink="http://www.w3.org/1999/xlink">
<defs>
<symbol id="icon-heart" viewBox="0 0 32 32">
<path d="M29.415 4.545c-1.676-1.676-3.894-2.591-6.262-2.591s-4.593 0.923-6.268 2.598l-0.875 0.875-0.889-0.889c-1.676-1.676-3.908-2.605-6.275-2.605-2.361 0-4.586 0.923-6.255 2.591-1.676 1.676-2.598 3.901-2.591 6.268 0 2.368 0.929 4.586 2.605 6.262l12.74 12.74c0.176 0.176 0.414 0.271 0.644 0.271s0.468-0.088 0.644-0.265l12.767-12.72c1.676-1.676 2.598-3.901 2.598-6.268 0.007-2.368-0.909-4.593-2.585-6.268zM28.113 15.786l-12.123 12.075-12.096-12.096c-1.33-1.33-2.062-3.094-2.062-4.973s0.726-3.643 2.056-4.966c1.323-1.323 3.087-2.056 4.959-2.056 1.879 0 3.65 0.733 4.979 2.062l1.533 1.533c0.36 0.36 0.936 0.36 1.296 0l1.52-1.52c1.33-1.33 3.1-2.062 4.973-2.062s3.636 0.733 4.966 2.056c1.33 1.33 2.056 3.094 2.056 4.973 0.007 1.879-0.726 3.643-2.056 4.973z"></path>
</symbol>
<symbol id="icon-heart-active" viewBox="0 0 32 32">
<path d="M27.787 6.147c-0.681-0.681-1.49-1.222-2.38-1.59s-1.844-0.559-2.807-0.559c-0.963 0-1.917 0.19-2.807 0.559s-1.698 0.909-2.379 1.591l-1.414 1.413-1.413-1.413c-1.375-1.376-3.241-2.148-5.187-2.148s-3.811 0.773-5.187 2.148c-1.375 1.376-2.148 3.241-2.148 5.187s0.773 3.811 2.148 5.187l11.786 11.787 11.787-11.787c0.681-0.681 1.222-1.49 1.59-2.38s0.559-1.844 0.559-2.807c0-0.963-0.19-1.917-0.559-2.807s-0.909-1.699-1.59-2.38z"></path>
<path stroke-linejoin="round" stroke-linecap="butt" stroke-miterlimit="4" stroke-width="1.7778" d="M25.407 4.556c-0.89-0.369-1.844-0.559-2.807-0.559s-1.917 0.19-2.807 0.559c-0.89 0.369-1.698 0.909-2.379 1.59l-1.414 1.413-1.413-1.413c-1.375-1.376-3.241-2.148-5.187-2.148s-3.811 0.773-5.187 2.148c-1.375 1.376-2.148 3.241-2.148 5.187s0.773 3.811 2.148 5.187l11.786 11.787 11.787-11.787c0.681-0.681 1.222-1.49 1.59-2.38s0.559-1.844 0.559-2.807c0-0.963-0.19-1.917-0.559-2.807s-0.909-1.699-1.59-2.38c-0.681-0.681-1.49-1.222-2.38-1.591z"></path>
</symbol>
<symbol id="icon-logo" viewBox="0 0 32 32">
<path d="M31.886 16.533l-2.667-6.167c-0.212-0.491-0.695-0.818-1.231-0.833l-0.019-0.002-5.012 0.001c-0.553 0-1.051 0.327-1.27 0.834l-0.507 1.173c-0.524-0.597-1.339-1.015-2.085-1.015h-12.572c-1.002 0-2.127 0.754-2.508 1.681l-1.342 3.268-1.277-0.352c-0.114-0.032-0.229-0.048-0.341-0.048-0.611 0-1.055 0.467-1.055 1.111v0.762c0 0.751 0.611 1.362 1.362 1.362h0.146l-0.217 0.528c-0.354 0.861-0.641 2.319-0.641 3.251v6.501c0 0.751 0.611 1.362 1.362 1.362h1.779c0.751 0 1.362-0.611 1.362-1.362v-1.623h15.308v1.623c0 0.751 0.611 1.362 1.362 1.362h1.779c0.597 0 1.103-0.386 1.288-0.921 0.127-0.223 0.201-0.48 0.201-0.754v-7.916h0.646v7.916c0 0.84 0.683 1.524 1.524 1.524s1.524-0.683 1.524-1.524v-11.941l0.56 1.296c0.219 0.507 0.718 0.835 1.27 0.835 0.189 0 0.374-0.038 0.549-0.114 0.7-0.303 1.024-1.119 0.721-1.819zM3.65 17.569l2.032-4.95c0.228-0.554 0.904-1.008 1.504-1.008h11.245c0.599 0 1.276 0.454 1.504 1.008l0.379 0.922-1.294 2.991c-0.147 0.339-0.153 0.715-0.016 1.059s0.398 0.614 0.737 0.76c0.175 0.076 0.36 0.114 0.549 0.114 0.553 0 1.051-0.328 1.27-0.835l0.222-0.513 0.185 0.451c0.228 0.554-0.076 1.008-0.676 1.008h-16.965c-0.599 0-0.904-0.454-0.676-1.008zM8.186 23.83c0 0.3-0.245 0.545-0.545 0.545h-3.86c-0.3 0-0.545-0.245-0.545-0.545v-1.852c0-0.3 0.245-0.545 0.545-0.545h3.86c0.3 0 0.545 0.245 0.545 0.545v1.852zM21.799 24.375h-3.86c-0.3 0-0.545-0.245-0.545-0.545v-1.852c0-0.3 0.245-0.545 0.545-0.545h3.86c0.089 0 0.172 0.024 0.246 0.062v2.819c-0.074 0.038-0.157 0.062-0.246 0.062z"></path>
<path d="M25.28 9.024c1.922 0 3.486-1.564 3.486-3.487s-1.564-3.487-3.486-3.487c-1.923 0-3.487 1.564-3.487 3.487s1.564 3.487 3.487 3.487z"></path>
</symbol>
<symbol id="icon-loader" viewBox="0 0 32 32">
<path d="M26.465 13.034c0-0.706-0.527-1.219-1.252-1.219-0.147 0-0.3 0.021-0.452 0.063l-0.514 0.142-0.791-1.926c-0.465-1.132-1.838-2.053-3.062-2.053h-8.803c-1.224 0-2.597 0.921-3.062 2.053l-0.789 1.922-0.501-0.138c-0.152-0.042-0.304-0.063-0.452-0.063-0.726 0-1.252 0.513-1.252 1.219 0 0.691 0.507 1.275 1.198 1.459-0.38 1.067-0.672 2.639-0.672 3.677v4.125c0 0.917 0.746 1.663 1.663 1.663h0.536c0.917 0 1.663-0.746 1.663-1.663v-0.748h12.139v0.748c0 0.917 0.746 1.663 1.663 1.663h0.536c0.917 0 1.663-0.746 1.663-1.663v-4.125c0-1.037-0.293-2.607-0.671-3.674 0.698-0.181 1.212-0.767 1.212-1.462zM8.767 13.428l1.299-3.164c0.278-0.677 1.104-1.231 1.836-1.231h8.182c0.732 0 1.558 0.554 1.836 1.231l1.299 3.164c0.278 0.677-0.093 1.231-0.825 1.231h-12.802c-0.732 0-1.103-0.554-0.825-1.231zM12.259 18.677c0 0.366-0.299 0.665-0.665 0.665h-2.667c-0.366 0-0.665-0.299-0.665-0.665v-1.046c0-0.366 0.299-0.665 0.665-0.665h2.667c0.366 0 0.665 0.299 0.665 0.665v1.046zM23.695 18.677c0 0.366-0.299 0.665-0.665 0.665h-2.667c-0.366 0-0.665-0.299-0.665-0.665v-1.046c0-0.366 0.299-0.665 0.665-0.665h2.667c0.366 0 0.665 0.299 0.665 0.665v1.046z"></path>
<path d="M0.949 10.043c0.183 0.111 0.385 0.164 0.585 0.164 0.383 0 0.756-0.194 0.969-0.545 2.806-4.633 7.711-7.399 13.121-7.399 4.524 0 8.773 1.989 11.671 5.393-0.473-0.040-0.939 0.223-1.136 0.683-0.245 0.575 0.023 1.239 0.598 1.484l1.852 0.789c0.296 0.126 0.599 0.189 0.894 0.189 0.367 0 0.722-0.097 1.033-0.289 0.561-0.347 0.907-0.959 0.949-1.68l0.108-1.816c0.037-0.624-0.439-1.159-1.062-1.196-0.536-0.033-1.006 0.316-1.151 0.81-3.327-4.174-8.372-6.629-13.756-6.629-3.081 0-6.113 0.808-8.768 2.337-2.574 1.483-4.749 3.61-6.289 6.152-0.324 0.534-0.153 1.23 0.382 1.553z"></path>
<path d="M31.051 21.957c-0.534-0.324-1.23-0.153-1.553 0.382-2.806 4.633-7.711 7.399-13.121 7.399-4.524 0-8.773-1.989-11.671-5.393 0.473 0.040 0.939-0.223 1.135-0.683 0.245-0.575-0.023-1.239-0.598-1.484l-1.852-0.789c-0.664-0.283-1.367-0.246-1.927 0.101s-0.906 0.959-0.949 1.68l-0.108 1.816c-0.037 0.624 0.438 1.159 1.062 1.196 0.023 0.001 0.046 0.002 0.068 0.002 0.508-0 0.945-0.339 1.083-0.812 3.327 4.174 8.372 6.629 13.756 6.629 3.081 0 6.113-0.808 8.768-2.337 2.575-1.483 4.749-3.61 6.289-6.152 0.323-0.534 0.153-1.23-0.382-1.553z"></path>
</symbol>
<symbol id="icon-x" viewBox="0 0 32 32">
<path d="M7.493 6.928c-0.56 0.259-0.825 0.957-0.585 1.54 0.057 0.139 1.185 1.303 3.747 3.865l3.665 3.667-3.665 3.667c-2.561 2.563-3.689 3.727-3.747 3.865-0.052 0.134-0.083 0.29-0.083 0.452 0 0.32 0.118 0.613 0.312 0.837l-0.001-0.002c0.309 0.329 0.9 0.449 1.332 0.272 0.139-0.057 1.303-1.185 3.865-3.747l3.667-3.665 3.667 3.665c2.563 2.561 3.727 3.689 3.865 3.747 0.432 0.177 1.023 0.057 1.332-0.272 0.193-0.223 0.311-0.515 0.311-0.836 0-0.163-0.030-0.318-0.086-0.461l0.003 0.009c-0.057-0.139-1.185-1.303-3.747-3.865l-3.665-3.667 3.665-3.667c2.561-2.563 3.689-3.727 3.747-3.865 0.177-0.432 0.057-1.023-0.272-1.332-0.223-0.193-0.515-0.311-0.836-0.311-0.163 0-0.318 0.030-0.461 0.086l0.009-0.003c-0.139 0.057-1.303 1.185-3.865 3.747l-3.667 3.665-3.667-3.665c-2.563-2.561-3.727-3.689-3.865-3.747-0.137-0.049-0.295-0.077-0.46-0.077-0.185 0-0.362 0.036-0.524 0.101l0.009-0.003z"></path>
</symbol>
<symbol id="icon-arrow" viewBox="0 0 32 32">
<path d="M15.488 10.494c-0.183 0.071-0.342 0.16-0.485 0.268l0.005-0.004c-0.114 0.093-2.046 2.011-4.294 4.264-4.546 4.558-4.29 4.258-4.285 5.005-0.001 0.017-0.001 0.037-0.001 0.057 0 0.409 0.174 0.777 0.451 1.035l0.001 0.001c0.325 0.325 0.634 0.448 1.12 0.448 0.723 0 0.531 0.163 4.467-3.77l3.533-3.53 3.533 3.53c3.936 3.933 3.744 3.77 4.467 3.77 0.486 0 0.795-0.123 1.12-0.448s0.448-0.634 0.448-1.12c0-0.731 0.232-0.462-4.437-5.131-3.485-3.485-4.243-4.218-4.461-4.314-0.199-0.087-0.43-0.138-0.674-0.138-0.182 0-0.357 0.028-0.521 0.081l0.012-0.003z"></path>
</symbol>
<symbol id="icon-burger-menu" viewBox="0 0 46 32">
<path fill="none" stroke-linejoin="round" stroke-linecap="round" stroke-miterlimit="4" stroke-width="3.5556" d="M1.778 16h28.444M1.778 1.778h42.667M1.778 30.222h42.667"></path>
</symbol>
</defs>
</svg>
